<svg id="Layer_1" data-name="Layer 1" xmlns="http://www.w3.org/2000/svg" xmlns:xlink="http://www.w3.org/1999/xlink" viewBox="0 0 795.17 276.25"><defs><style>.cls-1{fill:#2a2b2a;}.cls-2{fill:url(#linear-gradient);}.cls-3{fill:url(#linear-gradient-2);}.cls-4{fill:url(#linear-gradient-3);}.cls-5{fill:url(#linear-gradient-4);}.cls-6{fill:url(#linear-gradient-5);}</style><linearGradient id="linear-gradient" x1="527.27" y1="90.81" x2="737.36" y2="285.28" gradientUnits="userSpaceOnUse"><stop offset="0" stop-color="#3f8740"/><stop offset="1" stop-color="#b8d435"/></linearGradient><linearGradient id="linear-gradient-2" x1="571.93" y1="42.57" x2="782.02" y2="237.03" xlink:href="#linear-gradient"/><linearGradient id="linear-gradient-3" x1="590.41" y1="22.6" x2="800.5" y2="217.07" xlink:href="#linear-gradient"/><linearGradient id="linear-gradient-4" x1="96.27" y1="136.42" x2="189.17" y2="136.42" xlink:href="#linear-gradient"/><linearGradient id="linear-gradient-5" x1="157.21" y1="193.06" x2="118.11" y2="85.64" xlink:href="#linear-gradient"/></defs><title>Color</title><path class="cls-1" d="M299.2,152a26.07,26.07,0,0,0-5.31-8.9,33.94,33.94,0,0,0-8.2-6.44,65.88,65.88,0,0,0-10.53-4.79,49.17,49.17,0,0,0,7-4.5,29,29,0,0,0,6-6.11,30.33,30.33,0,0,0,4.09-8.17,33.54,33.54,0,0,0,1.58-10.7q0-15.59-11.6-24.6t-31.44-9H192v31.35c18.22,30.9,16.29,54.84,9.68,71.12A63.74,63.74,0,0,1,192,187.53V200h60.64a78.51,78.51,0,0,0,19.83-2.34,45.54,45.54,0,0,0,15.36-6.92,31.75,31.75,0,0,0,9.82-11.33,33.43,33.43,0,0,0,3.47-15.53A35.1,35.1,0,0,0,299.2,152ZM214.82,89.17h33.07q11.22,0,17.1,4.43t5.89,12.53q0,9.24-6.73,13.66t-17.93,4.44h-31.4Zm56.65,85.77c-4.5,3.06-10.66,4.59-18.52,4.59H214.82v-36h36.46q13.64,0,20.27,4.69a15.17,15.17,0,0,1,6.64,13.12Q278.19,170.34,271.47,174.94Z"/><path class="cls-1" d="M380.08,101H403v99H380.08V184.43a48.63,48.63,0,0,1-12.15,12.39q-7.29,5.2-18.69,5.21-16.83,0-26-10.32T314.09,164V101H337v56.11q0,11.6,5.48,17.86T358,181.22q9.84,0,16-6.46t6.13-18Z"/><path class="cls-1" d="M497.36,200v-16.5a51.41,51.41,0,0,1-13.56,13.13Q475.66,202,463.69,202a44.47,44.47,0,0,1-17-3.38,42.05,42.05,0,0,1-14.59-10A51.36,51.36,0,0,1,421.8,172.4a57.27,57.27,0,0,1-3.93-21.93,58.75,58.75,0,0,1,3.83-21.94,50.33,50.33,0,0,1,10.2-16.21,41.84,41.84,0,0,1,14.68-10,45.14,45.14,0,0,1,17.11-3.38q12.17,0,20.2,5.25a55.41,55.41,0,0,1,13.47,12.19V63.11h22.87V200Zm-2-62.61a32.23,32.23,0,0,0-6.26-10,26.83,26.83,0,0,0-9.16-6.47,27.17,27.17,0,0,0-10.84-2.25,28.11,28.11,0,0,0-10.93,2.15,26.86,26.86,0,0,0-9.06,6.28,29.72,29.72,0,0,0-6.17,10,37.61,37.61,0,0,0-2.24,13.4A37.15,37.15,0,0,0,443,163.69a29.67,29.67,0,0,0,6.17,10,27.85,27.85,0,0,0,9.06,6.37,27.39,27.39,0,0,0,30.93-6.47,32.23,32.23,0,0,0,6.26-10,38.1,38.1,0,0,0,0-26.24Z"/><path class="cls-2" d="M624.18,77.75q11.6,9,11.6,24.6a33.27,33.27,0,0,1-1.58,10.7,30.39,30.39,0,0,1-4.09,8.18,29.15,29.15,0,0,1-6,6.1,50.85,50.85,0,0,1-7,4.51,65.45,65.45,0,0,1,10.53,4.77,34,34,0,0,1,8.2,6.46,26,26,0,0,1,5.31,8.89,34.86,34.86,0,0,1,1.86,11.88,33.53,33.53,0,0,1-3.46,15.54,31.7,31.7,0,0,1-9.82,11.32,45.61,45.61,0,0,1-15.35,6.93A79.12,79.12,0,0,1,594.62,200H534V68.73h58.76Q612.59,68.73,624.18,77.75Zm-18,42q6.74-4.42,6.73-13.66,0-8.1-5.89-12.54t-17.09-4.43H556.86v35.06h31.39Q599.46,124.22,606.18,119.79Zm7.31,55.14q6.74-4.59,6.73-13.59a15.13,15.13,0,0,0-6.64-13.12q-6.63-4.68-20.28-4.69H556.86v36H595Q606.77,179.53,613.49,174.93Z"/><path class="cls-3" d="M655.9,85.79V64.23h24.56V85.79ZM656.84,200V101h22.87v99Z"/><path class="cls-4" d="M715.92,200H693.05V101h22.87v15.53a55.6,55.6,0,0,1,5.33-6.72,34.72,34.72,0,0,1,15.14-9.46,35.3,35.3,0,0,1,10.38-1.42q16.83,0,26,10.32T781.91,137v63H759V143.85q0-11.59-5.48-17.86T738,119.72q-9.85,0-16,6.46t-6.14,18Z"/><path class="cls-1" d="M140.69,68.22v7.2c-.76,8.68-5.47,21.81-23.86,34.42-31.31,21.47-39.95,55.46-20,80.81,3.43,4.35,8.43,7.43,14.34,9.25h0a94,94,0,0,1-94-94V68.22Z"/><path class="cls-1" d="M89.7,38.43v-3.1a7.58,7.58,0,0,0-7.58-7.58h-6.2a7.57,7.57,0,0,0-7.57,7.58v3.1h-51V60.34H140.75V38.43Z"/><path class="cls-5" d="M146.68,73.76v3.55a29.38,29.38,0,0,1,0,4.89c-.7,8-5.05,20.15-22,31.8-28.94,19.84-36.92,51.25-18.46,74.67a24.1,24.1,0,0,0,7.89,6.36c29.92-10.33,40.26-75.42,40.26-75.42-6.28,57.67-28,74.73-33.29,78.06C160.25,207.86,237.58,162.09,146.68,73.76Z"/><path class="cls-6" d="M146.7,75.23v3.48a28.32,28.32,0,0,1,0,4.8c-.68,7.86-4.95,19.75-21.62,31.18-28.37,19.45-36.2,50.25-18.09,73.22a23.47,23.47,0,0,0,7.73,6.23c29.34-10.13,39.48-73.95,39.48-73.95-6.16,56.55-27.49,73.28-32.64,76.54C160,206.72,235.83,161.84,146.7,75.23Z"/><path d="M200,226.15H190.2v-4.58h24.27v4.58h-9.79v32.51H200Z"/><path d="M239.32,246.73a12.53,12.53,0,0,1-12.5,12.5,12.48,12.48,0,1,1,0-25,12.43,12.43,0,0,1,12.5,12.45Zm-4.48,0a8,8,0,1,0-8,8A8,8,0,0,0,234.84,246.73Z"/><path d="M275,234.8l-4.48,23.86h-4.74l-7.71-13.6-7.71,13.6h-4.74l-4.48-23.86h4.53L249,252.41l6.61-11.67h4.9l6.62,11.67,3.33-17.61Z"/><path d="M298.2,234.8h4.48v23.86H298.2V255.9a12.87,12.87,0,0,1-8,3.28,12.45,12.45,0,1,1,0-24.9,12.81,12.81,0,0,1,8,3.28Zm0,11.93a8,8,0,1,0-8,8.07A8.08,8.08,0,0,0,298.2,246.73Z"/><path d="M313.67,237.25c1.51-1.67,5.94-3,8.7-3l-1.09,4.48a7.4,7.4,0,0,0-7.61,7.19v12.71h-4.48V234.8h4.48Z"/><path d="M344.83,220.42h4.48v38.24h-4.48V255.9a12.87,12.87,0,0,1-8,3.28,12.45,12.45,0,1,1,0-24.9,12.82,12.82,0,0,1,8,3.28Zm0,26.31a8,8,0,1,0-8,8.07A8.08,8.08,0,0,0,344.83,246.73Z"/><path d="M372.23,251.62a6.3,6.3,0,0,1-1.15,3.75,7.56,7.56,0,0,1-3.17,2.61,10.48,10.48,0,0,1-4.27.88,12.66,12.66,0,0,1-2.45-.26,15.68,15.68,0,0,1-7.14-3.43l2.81-3.08c2.76,2.35,5.11,2.82,6.57,2.82a6.82,6.82,0,0,0,2.76-.58,3,3,0,0,0,1.87-2.71c0-1.61-1.4-2.6-4.63-3.17-.16-.06-4.12-.79-5.58-1.62a6.17,6.17,0,0,1-3.33-5.57,6.55,6.55,0,0,1,1.15-3.65,7.07,7.07,0,0,1,3-2.29,9.64,9.64,0,0,1,4.12-.89,17.52,17.52,0,0,1,1.77.11,13.72,13.72,0,0,1,6.41,2.86l-2.61,3a8.8,8.8,0,0,0-5.36-2.08,5.76,5.76,0,0,0-2.55.52,2.84,2.84,0,0,0-1.72,2.4c0,1.56,1.25,2.39,4.42,3.07a32.46,32.46,0,0,1,5.53,1.62,6.55,6.55,0,0,1,2.5,2A6.25,6.25,0,0,1,372.23,251.62Z"/><path d="M408.18,234.8h4.48v23.86h-4.48V255.9a12.84,12.84,0,0,1-8,3.28,12.45,12.45,0,1,1,0-24.9,12.79,12.79,0,0,1,8,3.28Zm0,11.93a8,8,0,1,0-8,8.07A8.08,8.08,0,0,0,408.18,246.73Z"/><path d="M460.07,248.76l3.65,2.71a19.2,19.2,0,0,1-15.48,7.76,19.41,19.41,0,1,1,15.53-31l-3.7,2.71A14.57,14.57,0,0,0,448.24,225a14.82,14.82,0,1,0,11.83,23.76Z"/><path d="M468.56,258.66V220.42H473v38.24Z"/><path d="M500.81,247.82H482.42v.1c.52,4,3.49,6.93,6.93,7a9,9,0,0,0,5.83-2.5l3.76,2.23a14,14,0,0,1-3.18,2.66,13.53,13.53,0,0,1-6.31,1.77,10.68,10.68,0,0,1-8.07-3.64,12.31,12.31,0,0,1-3.23-7.51,7.88,7.88,0,0,1,0-1.09,12.8,12.8,0,0,1,.31-2.81,12.5,12.5,0,0,1,3-5.78,10.86,10.86,0,0,1,8.07-3.6,11,11,0,0,1,8.13,3.6,12.05,12.05,0,0,1,3,5.78A14.15,14.15,0,0,1,500.81,247.82Zm-4.69-3.75-.05-.1a7.22,7.22,0,0,0-6.62-5.16,7.31,7.31,0,0,0-6.61,5.16l0,.1Z"/><path d="M524.62,234.8h4.48v23.86h-4.48V255.9a12.84,12.84,0,0,1-8,3.28,12.45,12.45,0,1,1,0-24.9,12.79,12.79,0,0,1,8,3.28Zm0,11.93a8,8,0,1,0-8,8.07A8.07,8.07,0,0,0,524.62,246.73Z"/><path d="M558.54,245.84v12.82h-4.48V245.84a7,7,0,1,0-14.07,0v12.82h-4.48V234.8H540v2.29a11.89,11.89,0,0,1,7-2.76,11.43,11.43,0,0,1,8.18,3.33A11.59,11.59,0,0,1,558.54,245.84Z"/><path d="M585.47,247.82H567.08v.1c.52,4,3.49,6.93,6.93,7a9.05,9.05,0,0,0,5.84-2.5l3.75,2.23a14,14,0,0,1-3.18,2.66,13.46,13.46,0,0,1-6.3,1.77,10.7,10.7,0,0,1-8.08-3.64,12.37,12.37,0,0,1-3.23-7.51,7.88,7.88,0,0,1,0-1.09,12.8,12.8,0,0,1,.31-2.81,12.5,12.5,0,0,1,3-5.78,10.91,10.91,0,0,1,16.2,0,12.05,12.05,0,0,1,3,5.78A14.15,14.15,0,0,1,585.47,247.82Zm-4.69-3.75,0-.1a7.21,7.21,0,0,0-6.61-5.16A7.31,7.31,0,0,0,567.5,244l0,.1Z"/><path d="M594.59,237.25c1.51-1.67,5.94-3,8.7-3l-1.09,4.48a7.4,7.4,0,0,0-7.61,7.19v12.71h-4.48V234.8h4.48Z"/><path d="M619.65,221.57h12.92a8.83,8.83,0,1,1,0,17.66h-8.28v19.43h-4.64Zm17.09,8.85a4.29,4.29,0,0,0-4.17-4.32h-8.28v8.59h8.28A4.23,4.23,0,0,0,636.74,230.42Z"/><path d="M663.21,234.8h4.48v23.86h-4.48V255.9a12.89,12.89,0,0,1-8,3.28,12.45,12.45,0,1,1,0-24.9,12.84,12.84,0,0,1,8,3.28Zm0,11.93a8,8,0,1,0-8,8.07A8.08,8.08,0,0,0,663.21,246.73Z"/><path d="M675.76,250.74V239.07h-3.54V234.8h3.54v-9.22h4.48v9.22h7.35v4.27h-7.35v11.56a3.8,3.8,0,0,0,3.54,3.75h4l1.14,4.28h-5.26A7.88,7.88,0,0,1,675.76,250.74Z"/><path d="M715.62,245.84v12.82h-4.48V245.84a7,7,0,1,0-14.07,0v12.82h-4.48V220.42h4.48v16.67a11.89,11.89,0,0,1,7-2.76,11.44,11.44,0,0,1,8.18,3.33A11.59,11.59,0,0,1,715.62,245.84Z"/></svg>